<?xml version="1.0" encoding="UTF-8" standalone="no"?>
<!DOCTYPE svg PUBLIC "-//W3C//DTD SVG 1.1//EN" "http://www.w3.org/Graphics/SVG/1.1/DTD/svg11.dtd">
<svg width="100%" height="100%" viewBox="0 0 1920 1080" version="1.1" xmlns="http://www.w3.org/2000/svg" xmlns:xlink="http://www.w3.org/1999/xlink" xml:space="preserve" xmlns:serif="http://www.serif.com/" style="fill-rule:evenodd;clip-rule:evenodd;stroke-linejoin:round;stroke-miterlimit:2;">
    <g id="Text">
        <g transform="matrix(1,0,0,1,2,0.90711)">
            <text x="723.371px" y="138.957px" style="font-family:'AvenirNextCyr-Bold', 'Avenir Next Cyr', sans-serif;font-weight:750;font-size:48px;">V<tspan x="754.091px " y="138.957px ">u</tspan>e</text>
        </g>
        <g transform="matrix(1,0,0,1,-526.08,0.90711)">
            <text x="723.371px" y="138.957px" style="font-family:'AvenirNextCyr-Bold', 'Avenir Next Cyr', sans-serif;font-weight:750;font-size:48px;">R<tspan x="754.619px 782.939px " y="138.957px 138.957px ">ea</tspan>ct + R<tspan x="939.323px " y="138.957px ">e</tspan>dux</text>
        </g>
        <g transform="matrix(1,0,0,1,2,208.907)">
            <text x="723.371px" y="138.957px" style="font-family:'AvenirNextCyr-Bold', 'Avenir Next Cyr', sans-serif;font-weight:750;font-size:48px;">W<tspan x="770.843px " y="138.957px ">e</tspan>bGL</text>
        </g>
        <g transform="matrix(1,0,0,1,-526.08,208.907)">
            <text x="723.371px" y="138.957px" style="font-family:'AvenirNextCyr-Bold', 'Avenir Next Cyr', sans-serif;font-weight:750;font-size:48px;">HTML,<tspan x="871.979px " y="138.957px "> </tspan>CSS,<tspan x="987.083px 998.507px " y="138.957px 138.957px "> J</tspan>S</text>
        </g>
        <g transform="matrix(1,0,0,1,-528,832.179)">
            <text x="723.371px" y="138.957px" style="font-family:'AvenirNextCyr-Bold', 'Avenir Next Cyr', sans-serif;font-weight:750;font-size:48px;">CPU<tspan x="821.771px 834.731px " y="138.957px 138.957px ">, </tspan>Memory</text>
        </g>
        <g transform="matrix(1,0,0,1,-526,624.179)">
            <text x="723.371px" y="138.957px" style="font-family:'AvenirNextCyr-Bold', 'Avenir Next Cyr', sans-serif;font-weight:750;font-size:48px;">OS</text>
        </g>
        <g transform="matrix(1,0,0,1,361,208.907)">
            <text x="723.371px" y="138.957px" style="font-family:'AvenirNextCyr-Bold', 'Avenir Next Cyr', sans-serif;font-weight:750;font-size:48px;">W<tspan x="770.843px " y="138.957px ">e</tspan>bAssembly</text>
        </g>
        <g transform="matrix(1,0,0,1,-146,416.427)">
            <text x="723.371px" y="138.957px" style="font-family:'AvenirNextCyr-Bold', 'Avenir Next Cyr', sans-serif;font-weight:750;font-size:48px;">Qt</text>
        </g>
        <g transform="matrix(1,0,0,1,-525.808,416.427)">
            <text x="723.371px" y="138.957px" style="font-family:'AvenirNextCyr-Bold', 'Avenir Next Cyr', sans-serif;font-weight:750;font-size:48px;">Br<tspan x="773.435px " y="138.957px ">o</tspan>wser</text>
        </g>
        <g transform="matrix(1,0,0,1,98,416.427)">
            <text x="723.371px" y="138.957px" style="font-family:'AvenirNextCyr-Bold', 'Avenir Next Cyr', sans-serif;font-weight:750;font-size:48px;">Game engine?</text>
        </g>
        <g transform="matrix(1,0,0,1,277,0.90711)">
            <text x="723.371px" y="138.957px" style="font-family:'AvenirNextCyr-Bold', 'Avenir Next Cyr', sans-serif;font-weight:750;font-size:48px;">Svelte</text>
        </g>
        <g transform="matrix(1,0,0,1,618,0.81111)">
            <text x="723.371px" y="138.957px" style="font-family:'AvenirNextCyr-Bold', 'Avenir Next Cyr', sans-serif;font-weight:750;font-size:48px;">SolidJS?</text>
        </g>
        <g transform="matrix(1,0,0,1,1014,0.90711)">
            <text x="723.371px" y="138.957px" style="font-family:'AvenirNextCyr-Bold', 'Avenir Next Cyr', sans-serif;font-weight:750;font-size:48px;">jQuery?</text>
        </g>
    </g>
    <g id="Lines--Fill-" serif:id="Lines (Fill)">
        <path d="M123,145L123,311L137,311L137,145L123,145Z"/>
        <g transform="matrix(1,0,0,1,0,208)">
            <path d="M123,145L123,311L137,311L137,145L123,145Z"/>
        </g>
        <g transform="matrix(1,0,0,1,0,415)">
            <path d="M123,145L123,311L137,311L137,145L123,145Z"/>
        </g>
        <g transform="matrix(1,0,0,1,0,624)">
            <path d="M123,145L123,311L137,311L137,145L123,145Z"/>
        </g>
        <path d="M1942,185L161,185C160.778,185 160.557,185.011 160.336,185.032C149.012,186.111 140.313,189.924 134.105,196.108C127.884,202.306 128.038,205.003 127.027,216.424L136.973,223.658C137.645,216.068 139.852,210.145 143.987,206.025C148.076,201.951 153.922,199.754 161.338,199.001C189.515,199 1942,199 1942,199L1942,185Z"/>
        <g transform="matrix(1,0,0,1,0.0410594,204.959)">
            <path d="M1011,151L1011,161.661C1010.29,168.746 1008.12,174.257 1004.19,178.125C1000.24,182.028 994.63,184.17 987.605,185C987.601,185 161,185 161,185C160.778,185 160.557,185.011 160.336,185.032C149.016,186.11 140.307,189.921 134.09,196.103C127.855,202.302 126.997,207.001 125.986,218.424L136.932,223.658C137.603,216.07 139.819,210.149 143.961,206.03C148.061,201.954 153.918,199.754 161.338,199.001C180.419,199 988,199 988,199C988.257,199 988.514,198.986 988.77,198.958C999.577,197.761 1007.98,194.053 1014.02,188.094C1020.11,182.09 1023.93,173.708 1024.97,162.654C1024.99,162.436 1025,162.218 1025,162L1025,151L1011,151Z"/>
        </g>
        <g transform="matrix(1,0,0,1,0.0410594,411.959)">
            <path d="M747,153L747,161.661C746.287,168.746 744.117,174.257 740.194,178.125C736.238,182.028 730.63,184.17 723.605,185C706.741,185 161,185 161,185C160.778,185 160.557,185.011 160.336,185.032C149.016,186.11 140.307,189.921 134.09,196.103C127.855,202.302 129.997,208.001 128.986,219.424L136.932,223.658C137.603,216.07 139.819,210.149 143.961,206.03C148.061,201.954 153.918,199.754 161.338,199.001C161.343,199 724,199 724,199C724.257,199 724.514,198.986 724.77,198.958C735.577,197.761 743.982,194.053 750.025,188.094C756.112,182.09 759.933,173.708 760.969,162.654C760.99,162.436 761,162.218 761,162L761,153L747,153Z"/>
        </g>
        <g transform="matrix(1,0,0,1,-617,0)">
            <path d="M1268,148L1268,161.661C1267.29,168.746 1265.12,174.257 1261.19,178.125C1257.17,182.097 1251.43,184.245 1244.23,185.042L1245.77,198.958C1256.58,197.761 1264.98,194.053 1271.03,188.094C1277.11,182.09 1280.93,173.708 1281.97,162.654C1281.99,162.436 1282,162.218 1282,162L1282,148L1268,148Z"/>
        </g>
        <g transform="matrix(1,0,0,1,-342,0)">
            <path d="M1268,148L1268,161.661C1267.29,168.746 1265.12,174.257 1261.19,178.125C1257.17,182.097 1251.43,184.245 1244.23,185.042L1245.77,198.958C1256.58,197.761 1264.98,194.053 1271.03,188.094C1277.11,182.09 1280.93,173.708 1281.97,162.654C1281.99,162.436 1282,162.218 1282,162L1282,148L1268,148Z"/>
        </g>
        <path d="M1268,148L1268,161.661C1267.29,168.746 1265.12,174.257 1261.19,178.125C1257.17,182.097 1251.43,184.245 1244.23,185.042L1245.77,198.958C1256.58,197.761 1264.98,194.053 1271.03,188.094C1277.11,182.09 1280.93,173.708 1281.97,162.654C1281.99,162.436 1282,162.218 1282,162L1282,148L1268,148Z"/>
        <g transform="matrix(1,0,0,1,395,0)">
            <path d="M1268,148L1268,161.661C1267.29,168.746 1265.12,174.257 1261.19,178.125C1257.17,182.097 1251.43,184.245 1244.23,185.042L1245.77,198.958C1256.58,197.761 1264.98,194.053 1271.03,188.094C1277.11,182.09 1280.93,173.708 1281.97,162.654C1281.99,162.436 1282,162.218 1282,162L1282,148L1268,148Z"/>
        </g>
        <g transform="matrix(1,0,0,1,-765,412)">
            <path d="M1268,152L1268,161.661C1267.29,168.746 1265.12,174.257 1261.19,178.125C1257.17,182.097 1251.43,184.245 1244.23,185.042L1245.77,198.958C1256.58,197.761 1264.98,194.053 1271.03,188.094C1277.11,182.09 1280.93,173.708 1281.97,162.654C1281.99,162.436 1282,162.218 1282,162L1282,152L1268,152Z"/>
        </g>
        <g transform="matrix(1,0,0,1,-617,205)">
            <path d="M1268,152L1268,161.661C1267.29,168.746 1265.12,174.257 1261.19,178.125C1257.17,182.097 1251.43,184.245 1244.23,185.042L1245.77,198.958C1256.58,197.761 1264.98,194.053 1271.03,188.094C1277.11,182.09 1280.93,173.708 1281.97,162.654C1281.99,162.436 1282,162.218 1282,162L1282,152L1268,152Z"/>
        </g>
        <path d="M130,96C114.546,96 102,108.546 102,124C102,139.454 114.546,152 130,152C145.454,152 158,139.454 158,124C158,108.546 145.454,96 130,96ZM130,110C137.727,110 144,116.273 144,124C144,131.727 137.727,138 130,138C122.273,138 116,131.727 116,124C116,116.273 122.273,110 130,110Z"/>
        <g transform="matrix(1,0,0,1,528,0)">
            <path d="M130,96C114.546,96 102,108.546 102,124C102,139.454 114.546,152 130,152C145.454,152 158,139.454 158,124C158,108.546 145.454,96 130,96ZM130,110C137.727,110 144,116.273 144,124C144,131.727 137.727,138 130,138C122.273,138 116,131.727 116,124C116,116.273 122.273,110 130,110Z"/>
        </g>
        <g transform="matrix(1,0,0,1,803,0)">
            <path d="M130,96C114.546,96 102,108.546 102,124C102,139.454 114.546,152 130,152C145.454,152 158,139.454 158,124C158,108.546 145.454,96 130,96ZM130,110C137.727,110 144,116.273 144,124C144,131.727 137.727,138 130,138C122.273,138 116,131.727 116,124C116,116.273 122.273,110 130,110Z"/>
        </g>
        <g transform="matrix(1,0,0,1,1145,0)">
            <path d="M130,96C114.546,96 102,108.546 102,124C102,139.454 114.546,152 130,152C145.454,152 158,139.454 158,124C158,108.546 145.454,96 130,96ZM130,110C137.727,110 144,116.273 144,124C144,131.727 137.727,138 130,138C122.273,138 116,131.727 116,124C116,116.273 122.273,110 130,110Z"/>
        </g>
        <g transform="matrix(1,0,0,1,1540,0)">
            <path d="M130,96C114.546,96 102,108.546 102,124C102,139.454 114.546,152 130,152C145.454,152 158,139.454 158,124C158,108.546 145.454,96 130,96ZM130,110C137.727,110 144,116.273 144,124C144,131.727 137.727,138 130,138C122.273,138 116,131.727 116,124C116,116.273 122.273,110 130,110Z"/>
        </g>
        <g transform="matrix(1,0,0,1,0,208)">
            <path d="M130,96C114.546,96 102,108.546 102,124C102,139.454 114.546,152 130,152C145.454,152 158,139.454 158,124C158,108.546 145.454,96 130,96ZM130,110C137.727,110 144,116.273 144,124C144,131.727 137.727,138 130,138C122.273,138 116,131.727 116,124C116,116.273 122.273,110 130,110Z"/>
        </g>
        <g transform="matrix(1,0,0,1,528,208)">
            <path d="M130,96C114.546,96 102,108.546 102,124C102,139.454 114.546,152 130,152C145.454,152 158,139.454 158,124C158,108.546 145.454,96 130,96ZM130,110C137.727,110 144,116.273 144,124C144,131.727 137.727,138 130,138C122.273,138 116,131.727 116,124C116,116.273 122.273,110 130,110Z"/>
        </g>
        <g transform="matrix(1,0,0,1,888,208)">
            <path d="M130,96C114.546,96 102,108.546 102,124C102,139.454 114.546,152 130,152C145.454,152 158,139.454 158,124C158,108.546 145.454,96 130,96ZM130,110C137.727,110 144,116.273 144,124C144,131.727 137.727,138 130,138C122.273,138 116,131.727 116,124C116,116.273 122.273,110 130,110Z"/>
        </g>
        <g transform="matrix(1,0,0,1,0,416)">
            <path d="M130,96C114.546,96 102,108.546 102,124C102,139.454 114.546,152 130,152C145.454,152 158,139.454 158,124C158,108.546 145.454,96 130,96ZM130,110C137.727,110 144,116.273 144,124C144,131.727 137.727,138 130,138C122.273,138 116,131.727 116,124C116,116.273 122.273,110 130,110Z"/>
        </g>
        <g transform="matrix(1,0,0,1,380,416)">
            <path d="M130,96C114.546,96 102,108.546 102,124C102,139.454 114.546,152 130,152C145.454,152 158,139.454 158,124C158,108.546 145.454,96 130,96ZM130,110C137.727,110 144,116.273 144,124C144,131.727 137.727,138 130,138C122.273,138 116,131.727 116,124C116,116.273 122.273,110 130,110Z"/>
        </g>
        <g transform="matrix(1,0,0,1,624,416)">
            <path d="M130,96C114.546,96 102,108.546 102,124C102,139.454 114.546,152 130,152C145.454,152 158,139.454 158,124C158,108.546 145.454,96 130,96ZM130,110C137.727,110 144,116.273 144,124C144,131.727 137.727,138 130,138C122.273,138 116,131.727 116,124C116,116.273 122.273,110 130,110Z"/>
        </g>
        <g transform="matrix(1,0,0,1,0,624)">
            <path d="M130,96C114.546,96 102,108.546 102,124C102,139.454 114.546,152 130,152C145.454,152 158,139.454 158,124C158,108.546 145.454,96 130,96ZM130,110C137.727,110 144,116.273 144,124C144,131.727 137.727,138 130,138C122.273,138 116,131.727 116,124C116,116.273 122.273,110 130,110Z"/>
        </g>
        <g transform="matrix(1,0,0,1,0,832)">
            <path d="M130,96C114.546,96 102,108.546 102,124C102,139.454 114.546,152 130,152C145.454,152 158,139.454 158,124C158,108.546 145.454,96 130,96ZM130,110C137.727,110 144,116.273 144,124C144,131.727 137.727,138 130,138C122.273,138 116,131.727 116,124C116,116.273 122.273,110 130,110Z"/>
        </g>
    </g>
</svg>
