<?xml version="1.0" encoding="UTF-8" standalone="no"?>
<!DOCTYPE svg PUBLIC "-//W3C//DTD SVG 1.1//EN" "http://www.w3.org/Graphics/SVG/1.1/DTD/svg11.dtd">
<svg width="100%" height="100%" viewBox="0 0 1560 540" version="1.1" xmlns="http://www.w3.org/2000/svg" xmlns:xlink="http://www.w3.org/1999/xlink" xml:space="preserve" xmlns:serif="http://www.serif.com/" style="fill-rule:evenodd;clip-rule:evenodd;stroke-linejoin:round;stroke-miterlimit:2;">
    <g id="Lines--Fill-" serif:id="Lines (Fill)" transform="matrix(1,0,0,1,0,-478)">
        <g transform="matrix(1,0,0,1,0,415)">
            <path d="M123,145L123,311L137,311L137,145L123,145Z"/>
        </g>
        <g transform="matrix(1,0,0,1,0,624)">
            <path d="M123,145L123,311L137,311L137,145L123,145Z"/>
        </g>
        <g transform="matrix(1,0,0,1,0.0410594,411.959)">
            <path d="M1069.96,153L1069.96,161.661C1069.25,168.746 1067.08,174.257 1063.15,178.125C1059.2,182.028 1053.59,184.17 1046.56,185C1046.56,185 161,185 161,185C160.778,185 160.557,185.011 160.336,185.032C149.016,186.11 140.307,189.921 134.09,196.103C127.855,202.302 123.997,211.001 122.986,222.424L136.932,223.658C137.603,216.07 139.819,210.149 143.961,206.03C148.061,201.954 153.918,199.754 161.338,199.001C181.1,199 1046.96,199 1046.96,199C1047.22,199 1047.47,198.986 1047.73,198.958C1058.54,197.761 1066.94,194.053 1072.98,188.094C1079.07,182.09 1082.89,173.708 1083.93,162.654C1083.95,162.436 1083.96,162.218 1083.96,162L1083.96,153L1069.96,153Z"/>
        </g>
        <g transform="matrix(1,0,0,1,-617,412)">
            <path d="M1268,152L1268,161.661C1267.29,168.746 1265.12,174.257 1261.19,178.125C1257.17,182.097 1251.43,184.245 1244.23,185.042L1245.77,198.958C1256.58,197.761 1264.98,194.053 1271.03,188.094C1277.11,182.09 1280.93,173.708 1281.97,162.654C1281.99,162.436 1282,162.218 1282,162L1282,152L1268,152Z"/>
        </g>
        <g transform="matrix(1,0,0,1,0,416)">
            <path d="M130,96C114.546,96 102,108.546 102,124C102,139.454 114.546,152 130,152C145.454,152 158,139.454 158,124C158,108.546 145.454,96 130,96ZM130,110C137.727,110 144,116.273 144,124C144,131.727 137.727,138 130,138C122.273,138 116,131.727 116,124C116,116.273 122.273,110 130,110Z"/>
        </g>
        <g transform="matrix(1,0,0,1,528,416)">
            <path d="M130,96C114.546,96 102,108.546 102,124C102,139.454 114.546,152 130,152C145.454,152 158,139.454 158,124C158,108.546 145.454,96 130,96ZM130,110C137.727,110 144,116.273 144,124C144,131.727 137.727,138 130,138C122.273,138 116,131.727 116,124C116,116.273 122.273,110 130,110Z"/>
        </g>
        <g transform="matrix(1,0,0,1,947,416)">
            <path d="M130,96C114.546,96 102,108.546 102,124C102,139.454 114.546,152 130,152C145.454,152 158,139.454 158,124C158,108.546 145.454,96 130,96ZM130,110C137.727,110 144,116.273 144,124C144,131.727 137.727,138 130,138C122.273,138 116,131.727 116,124C116,116.273 122.273,110 130,110Z"/>
        </g>
        <g transform="matrix(1,0,0,1,0,624)">
            <path d="M130,96C114.546,96 102,108.546 102,124C102,139.454 114.546,152 130,152C145.454,152 158,139.454 158,124C158,108.546 145.454,96 130,96ZM130,110C137.727,110 144,116.273 144,124C144,131.727 137.727,138 130,138C122.273,138 116,131.727 116,124C116,116.273 122.273,110 130,110Z"/>
        </g>
        <g transform="matrix(1,0,0,1,0,832)">
            <path d="M130,96C114.546,96 102,108.546 102,124C102,139.454 114.546,152 130,152C145.454,152 158,139.454 158,124C158,108.546 145.454,96 130,96ZM130,110C137.727,110 144,116.273 144,124C144,131.727 137.727,138 130,138C122.273,138 116,131.727 116,124C116,116.273 122.273,110 130,110Z"/>
        </g>
    </g>
    <g id="Text" transform="matrix(1,0,0,1,0,-478)">
        <g transform="matrix(1,0,0,1,-528,832.179)">
            <text x="723.371px" y="138.957px" style="font-family:'AvenirNextCyr-Bold', 'Avenir Next Cyr', sans-serif;font-weight:750;font-size:48px;">CPU<tspan x="821.771px 834.731px " y="138.957px 138.957px ">, </tspan>Memory</text>
        </g>
        <g transform="matrix(1,0,0,1,-526,624.179)">
            <text x="723.371px" y="138.957px" style="font-family:'AvenirNextCyr-Bold', 'Avenir Next Cyr', sans-serif;font-weight:750;font-size:48px;">OS</text>
        </g>
        <g transform="matrix(1,0,0,1,-525.808,416.427)">
            <text x="723.371px" y="138.957px" style="font-family:'AvenirNextCyr-Bold', 'Avenir Next Cyr', sans-serif;font-weight:750;font-size:48px;">New pla<tspan x="916.235px " y="138.957px ">t</tspan>forms</text>
        </g>
        <g transform="matrix(1,0,0,1,2.192,416.427)">
            <text x="723.371px" y="138.957px" style="font-family:'AvenirNextCyr-Bold', 'Avenir Next Cyr', sans-serif;font-weight:750;font-size:48px;">New tools</text>
        </g>
        <g transform="matrix(1,0,0,1,420.192,416.427)">
            <text x="723.371px" y="138.957px" style="font-family:'AvenirNextCyr-Bold', 'Avenir Next Cyr', sans-serif;font-weight:750;font-size:48px;">New libr<tspan x="922.091px " y="138.957px ">a</tspan>ries</text>
        </g>
    </g>
</svg>
