<?xml version="1.0" encoding="UTF-8" standalone="no"?>
<!DOCTYPE svg PUBLIC "-//W3C//DTD SVG 1.1//EN" "http://www.w3.org/Graphics/SVG/1.1/DTD/svg11.dtd">
<svg width="327" height="516" viewBox="0 0 327 516" version="1.1" xmlns="http://www.w3.org/2000/svg" xmlns:xlink="http://www.w3.org/1999/xlink" xml:space="preserve" xmlns:serif="http://www.serif.com/" style="fill-rule:evenodd;clip-rule:evenodd;stroke-linejoin:round;stroke-miterlimit:2;">
    <g transform="matrix(1,0,0,1,-51.8809,-14.4227)">
        <path d="M69.017,39.271L63.417,39.271L59.133,31.403L57.509,31.403L57.509,39.271L52.805,39.271L52.805,19.447L60.365,19.447C61.373,19.447 62.306,19.55 63.165,19.755C64.024,19.96 64.826,20.287 65.573,20.735C66.32,21.183 66.903,21.808 67.323,22.611C67.743,23.414 67.953,24.356 67.953,25.439C67.953,26.746 67.589,27.866 66.861,28.799C66.133,29.732 65.125,30.395 63.837,30.787L69.017,39.271ZM63.221,25.523C63.221,24.048 62.157,23.311 60.029,23.311L57.481,23.311L57.481,27.931L59.749,27.931C62.064,27.931 63.221,27.128 63.221,25.523Z" style="fill-rule:nonzero;"/>
        <path d="M74.477,30.703L80.385,30.703C80.385,29.938 80.147,29.303 79.671,28.799C79.195,28.295 78.518,28.043 77.641,28.043C76.782,28.043 76.054,28.304 75.457,28.827C74.86,29.35 74.533,29.975 74.477,30.703ZM84.613,32.467C84.613,32.971 84.604,33.335 84.585,33.559L74.477,33.559C74.552,34.306 74.916,34.931 75.569,35.435C76.222,35.939 76.969,36.191 77.809,36.191C79.153,36.191 80.18,35.706 80.889,34.735L84.081,36.751C82.718,38.73 80.609,39.719 77.753,39.719C75.569,39.719 73.744,39.061 72.279,37.745C70.814,36.429 70.081,34.632 70.081,32.355C70.081,30.115 70.795,28.309 72.223,26.937C73.651,25.565 75.448,24.879 77.613,24.879C79.704,24.879 81.393,25.556 82.681,26.909C83.969,28.262 84.613,30.115 84.613,32.467Z" style="fill-rule:nonzero;"/>
        <path d="M95.533,33.671L95.533,33.195L94.945,33.195C92.089,33.195 90.661,33.83 90.661,35.099C90.661,35.584 90.857,35.944 91.249,36.177C91.641,36.41 92.108,36.527 92.649,36.527C93.564,36.527 94.273,36.27 94.777,35.757C95.281,35.244 95.533,34.548 95.533,33.671ZM89.429,29.723L87.105,27.231C88.766,25.663 90.838,24.879 93.321,24.879C95.617,24.879 97.26,25.462 98.249,26.629C99.238,27.796 99.733,29.667 99.733,32.243L99.733,39.271L95.533,39.271L95.533,37.787L95.449,37.787C95.113,38.347 94.581,38.79 93.853,39.117C93.125,39.444 92.341,39.607 91.501,39.607C90.68,39.607 89.91,39.481 89.191,39.229C88.472,38.977 87.833,38.506 87.273,37.815C86.713,37.124 86.433,36.266 86.433,35.239C86.433,32.103 89.42,30.535 95.393,30.535L95.393,30.311C95.393,29.658 95.16,29.158 94.693,28.813C94.226,28.468 93.62,28.295 92.873,28.295C91.604,28.295 90.456,28.771 89.429,29.723Z" style="fill-rule:nonzero;"/>
        <path d="M115.413,26.755L112.753,29.835C112.51,29.499 112.16,29.228 111.703,29.023C111.246,28.818 110.784,28.715 110.317,28.715C109.365,28.715 108.59,29.065 107.993,29.765C107.396,30.465 107.097,31.31 107.097,32.299C107.097,33.288 107.396,34.128 107.993,34.819C108.59,35.51 109.384,35.855 110.373,35.855C111.456,35.855 112.286,35.51 112.865,34.819L115.413,37.927C114.181,39.122 112.464,39.719 110.261,39.719C108.002,39.719 106.136,39.047 104.661,37.703C103.186,36.359 102.449,34.558 102.449,32.299C102.449,30.078 103.191,28.286 104.675,26.923C106.159,25.56 108.012,24.879 110.233,24.879C111.222,24.879 112.198,25.052 113.159,25.397C114.12,25.742 114.872,26.195 115.413,26.755Z" style="fill-rule:nonzero;"/>
        <path d="M125.493,28.771L122.217,28.771L122.217,34.091C122.217,34.763 122.348,35.258 122.609,35.575C122.87,35.892 123.318,36.051 123.953,36.051C124.494,36.051 124.942,35.976 125.297,35.827L125.353,39.187C124.588,39.467 123.701,39.607 122.693,39.607C120.92,39.607 119.65,39.178 118.885,38.319C118.12,37.46 117.737,36.238 117.737,34.651L117.737,28.771L115.497,28.771L115.497,25.327L117.709,25.327L117.709,21.659L122.217,21.659L122.217,25.327L125.493,25.327L125.493,28.771Z" style="fill-rule:nonzero;"/>
        <path d="M149.965,32.551L144.029,32.551L144.029,38.403L140.389,38.403L140.389,32.551L134.425,32.551L134.425,29.023L140.361,29.023L140.361,23.171L144.001,23.171L144.001,29.023L149.965,29.023L149.965,32.551Z" style="fill-rule:nonzero;"/>
        <path d="M176.761,39.271L171.161,39.271L166.877,31.403L165.253,31.403L165.253,39.271L160.549,39.271L160.549,19.447L168.109,19.447C169.117,19.447 170.05,19.55 170.909,19.755C171.768,19.96 172.57,20.287 173.317,20.735C174.064,21.183 174.647,21.808 175.067,22.611C175.487,23.414 175.697,24.356 175.697,25.439C175.697,26.746 175.333,27.866 174.605,28.799C173.877,29.732 172.869,30.395 171.581,30.787L176.761,39.271ZM170.965,25.523C170.965,24.048 169.901,23.311 167.773,23.311L165.225,23.311L165.225,27.931L167.493,27.931C169.808,27.931 170.965,27.128 170.965,25.523Z" style="fill-rule:nonzero;"/>
        <path d="M182.221,30.703L188.129,30.703C188.129,29.938 187.891,29.303 187.415,28.799C186.939,28.295 186.262,28.043 185.385,28.043C184.526,28.043 183.798,28.304 183.201,28.827C182.604,29.35 182.277,29.975 182.221,30.703ZM192.357,32.467C192.357,32.971 192.348,33.335 192.329,33.559L182.221,33.559C182.296,34.306 182.66,34.931 183.313,35.435C183.966,35.939 184.713,36.191 185.553,36.191C186.897,36.191 187.924,35.706 188.633,34.735L191.825,36.751C190.462,38.73 188.353,39.719 185.497,39.719C183.313,39.719 181.488,39.061 180.023,37.745C178.558,36.429 177.825,34.632 177.825,32.355C177.825,30.115 178.539,28.309 179.967,26.937C181.395,25.565 183.192,24.879 185.357,24.879C187.448,24.879 189.137,25.556 190.425,26.909C191.713,28.262 192.357,30.115 192.357,32.467Z" style="fill-rule:nonzero;"/>
        <path d="M209.997,39.271L205.769,39.271L205.769,37.451L205.713,37.451C205.265,38.142 204.626,38.683 203.795,39.075C202.964,39.467 202.082,39.663 201.149,39.663C199.133,39.663 197.523,38.94 196.319,37.493C195.115,36.046 194.513,34.296 194.513,32.243C194.513,30.227 195.12,28.505 196.333,27.077C197.546,25.649 199.133,24.935 201.093,24.935C202.866,24.935 204.285,25.56 205.349,26.811L205.405,26.811L205.405,18.103L209.997,18.103L209.997,39.271ZM205.601,32.271C205.601,31.338 205.288,30.507 204.663,29.779C204.038,29.051 203.23,28.687 202.241,28.687C201.214,28.687 200.407,29.037 199.819,29.737C199.231,30.437 198.937,31.272 198.937,32.243C198.937,33.232 199.231,34.082 199.819,34.791C200.407,35.5 201.214,35.855 202.241,35.855C203.23,35.855 204.038,35.496 204.663,34.777C205.288,34.058 205.601,33.223 205.601,32.271Z" style="fill-rule:nonzero;"/>
        <path d="M227.245,39.271L222.821,39.271L222.821,37.339L222.765,37.339C222.429,37.992 221.878,38.543 221.113,38.991C220.348,39.439 219.498,39.663 218.565,39.663C216.829,39.663 215.55,39.108 214.729,37.997C213.908,36.886 213.497,35.538 213.497,33.951L213.497,25.327L218.117,25.327L218.117,32.887C218.117,34.866 218.808,35.855 220.189,35.855C220.954,35.855 221.556,35.566 221.995,34.987C222.434,34.408 222.653,33.699 222.653,32.859L222.653,25.327L227.245,25.327L227.245,39.271Z" style="fill-rule:nonzero;"/>
        <path d="M245.753,39.271L240.349,39.271L237.353,34.987L234.273,39.271L228.953,39.271L234.525,31.963L229.485,25.327L234.833,25.327L237.437,29.051L240.069,25.327L245.249,25.327L240.237,31.963L245.753,39.271Z" style="fill-rule:nonzero;"/>
    </g>
    <g transform="matrix(1,0,0,1,-51.8809,106.171)">
        <path d="M70.109,39.271L65.321,39.271L65.321,30.983L57.593,30.983L57.593,39.271L52.805,39.271L52.805,19.447L57.593,19.447L57.593,26.951L65.321,26.951L65.321,19.447L70.109,19.447L70.109,39.271Z" style="fill-rule:nonzero;"/>
        <path d="M88.281,23.535L82.681,23.535L82.681,39.271L77.893,39.271L77.893,23.535L72.293,23.535L72.293,19.447L88.281,19.447L88.281,23.535Z" style="fill-rule:nonzero;"/>
        <path d="M113.117,39.271L108.441,39.271L108.553,25.243L108.469,25.243L103.317,39.271L99.957,39.271L94.945,25.243L94.861,25.243L94.973,39.271L90.465,39.271L90.465,19.447L97.269,19.447L101.777,32.159L101.889,32.159L106.201,19.447L113.117,19.447L113.117,39.271Z" style="fill-rule:nonzero;"/>
        <path d="M129.693,39.271L117.205,39.271L117.205,19.447L122.021,19.447L122.021,35.099L129.693,35.099L129.693,39.271Z" style="fill-rule:nonzero;"/>
        <path d="M136.945,34.791L134.229,42.743L130.449,42.743L132.549,34.791L136.945,34.791Z" style="fill-rule:nonzero;"/>
        <path d="M163.937,36.527C162.052,38.711 159.485,39.803 156.237,39.803C153.157,39.803 150.609,38.828 148.593,36.877C146.577,34.926 145.569,32.411 145.569,29.331C145.569,26.214 146.591,23.698 148.635,21.785C150.679,19.872 153.241,18.915 156.321,18.915C157.758,18.915 159.154,19.172 160.507,19.685C161.86,20.198 162.938,20.912 163.741,21.827L160.493,25.075C160.064,24.478 159.49,24.025 158.771,23.717C158.052,23.409 157.292,23.255 156.489,23.255C154.828,23.255 153.46,23.829 152.387,24.977C151.314,26.125 150.777,27.576 150.777,29.331C150.777,31.123 151.3,32.584 152.345,33.713C153.39,34.842 154.744,35.407 156.405,35.407C158.253,35.407 159.653,34.735 160.605,33.391L163.937,36.527Z" style="fill-rule:nonzero;"/>
        <path d="M179.505,21.379L176.453,24.599C176.061,24.095 175.534,23.684 174.871,23.367C174.208,23.05 173.56,22.891 172.925,22.891C172.178,22.891 171.53,23.045 170.979,23.353C170.428,23.661 170.153,24.17 170.153,24.879C170.153,25.196 170.218,25.472 170.349,25.705C170.48,25.938 170.699,26.144 171.007,26.321C171.315,26.498 171.618,26.648 171.917,26.769C172.216,26.89 172.645,27.035 173.205,27.203C173.933,27.446 174.502,27.642 174.913,27.791C175.324,27.94 175.851,28.188 176.495,28.533C177.139,28.878 177.638,29.238 177.993,29.611C178.348,29.984 178.665,30.484 178.945,31.109C179.225,31.734 179.365,32.42 179.365,33.167C179.365,35.314 178.632,36.952 177.167,38.081C175.702,39.21 173.905,39.775 171.777,39.775C170.34,39.775 168.958,39.523 167.633,39.019C166.308,38.515 165.216,37.815 164.357,36.919L167.493,33.727C167.978,34.343 168.618,34.847 169.411,35.239C170.204,35.631 170.993,35.827 171.777,35.827C172.58,35.827 173.238,35.654 173.751,35.309C174.264,34.964 174.521,34.418 174.521,33.671C174.521,33.372 174.451,33.106 174.311,32.873C174.171,32.64 174.017,32.444 173.849,32.285C173.681,32.126 173.382,31.954 172.953,31.767C172.524,31.58 172.16,31.436 171.861,31.333C171.562,31.23 171.077,31.067 170.405,30.843C169.677,30.6 169.052,30.348 168.529,30.087C168.006,29.826 167.484,29.48 166.961,29.051C166.438,28.622 166.037,28.08 165.757,27.427C165.477,26.774 165.337,26.018 165.337,25.159C165.337,24.114 165.561,23.176 166.009,22.345C166.457,21.514 167.054,20.861 167.801,20.385C168.548,19.909 169.364,19.55 170.251,19.307C171.138,19.064 172.057,18.943 173.009,18.943C174.166,18.943 175.328,19.153 176.495,19.573C177.662,19.993 178.665,20.595 179.505,21.379Z" style="fill-rule:nonzero;"/>
        <path d="M196.053,21.379L193.001,24.599C192.609,24.095 192.082,23.684 191.419,23.367C190.756,23.05 190.108,22.891 189.473,22.891C188.726,22.891 188.078,23.045 187.527,23.353C186.976,23.661 186.701,24.17 186.701,24.879C186.701,25.196 186.766,25.472 186.897,25.705C187.028,25.938 187.247,26.144 187.555,26.321C187.863,26.498 188.166,26.648 188.465,26.769C188.764,26.89 189.193,27.035 189.753,27.203C190.481,27.446 191.05,27.642 191.461,27.791C191.872,27.94 192.399,28.188 193.043,28.533C193.687,28.878 194.186,29.238 194.541,29.611C194.896,29.984 195.213,30.484 195.493,31.109C195.773,31.734 195.913,32.42 195.913,33.167C195.913,35.314 195.18,36.952 193.715,38.081C192.25,39.21 190.453,39.775 188.325,39.775C186.888,39.775 185.506,39.523 184.181,39.019C182.856,38.515 181.764,37.815 180.905,36.919L184.041,33.727C184.526,34.343 185.166,34.847 185.959,35.239C186.752,35.631 187.541,35.827 188.325,35.827C189.128,35.827 189.786,35.654 190.299,35.309C190.812,34.964 191.069,34.418 191.069,33.671C191.069,33.372 190.999,33.106 190.859,32.873C190.719,32.64 190.565,32.444 190.397,32.285C190.229,32.126 189.93,31.954 189.501,31.767C189.072,31.58 188.708,31.436 188.409,31.333C188.11,31.23 187.625,31.067 186.953,30.843C186.225,30.6 185.6,30.348 185.077,30.087C184.554,29.826 184.032,29.48 183.509,29.051C182.986,28.622 182.585,28.08 182.305,27.427C182.025,26.774 181.885,26.018 181.885,25.159C181.885,24.114 182.109,23.176 182.557,22.345C183.005,21.514 183.602,20.861 184.349,20.385C185.096,19.909 185.912,19.55 186.799,19.307C187.686,19.064 188.605,18.943 189.557,18.943C190.714,18.943 191.876,19.153 193.043,19.573C194.21,19.993 195.213,20.595 196.053,21.379Z" style="fill-rule:nonzero;"/>
        <path d="M204.089,34.791L201.373,42.743L197.593,42.743L199.693,34.791L204.089,34.791Z" style="fill-rule:nonzero;"/>
        <path d="M224.137,32.495C224.137,33.186 224.086,33.844 223.983,34.469C223.88,35.094 223.684,35.743 223.395,36.415C223.106,37.087 222.728,37.666 222.261,38.151C221.794,38.636 221.164,39.033 220.371,39.341C219.578,39.649 218.658,39.803 217.613,39.803C215.989,39.803 214.603,39.374 213.455,38.515C212.307,37.656 211.546,36.536 211.173,35.155L215.401,33.727C215.532,34.25 215.77,34.67 216.115,34.987C216.46,35.304 216.885,35.463 217.389,35.463C218.117,35.463 218.621,35.211 218.901,34.707C219.181,34.203 219.321,33.475 219.321,32.523L219.321,19.447L224.137,19.447L224.137,32.495Z" style="fill-rule:nonzero;"/>
        <path d="M241.637,21.379L238.585,24.599C238.193,24.095 237.666,23.684 237.003,23.367C236.34,23.05 235.692,22.891 235.057,22.891C234.31,22.891 233.662,23.045 233.111,23.353C232.56,23.661 232.285,24.17 232.285,24.879C232.285,25.196 232.35,25.472 232.481,25.705C232.612,25.938 232.831,26.144 233.139,26.321C233.447,26.498 233.75,26.648 234.049,26.769C234.348,26.89 234.777,27.035 235.337,27.203C236.065,27.446 236.634,27.642 237.045,27.791C237.456,27.94 237.983,28.188 238.627,28.533C239.271,28.878 239.77,29.238 240.125,29.611C240.48,29.984 240.797,30.484 241.077,31.109C241.357,31.734 241.497,32.42 241.497,33.167C241.497,35.314 240.764,36.952 239.299,38.081C237.834,39.21 236.037,39.775 233.909,39.775C232.472,39.775 231.09,39.523 229.765,39.019C228.44,38.515 227.348,37.815 226.489,36.919L229.625,33.727C230.11,34.343 230.75,34.847 231.543,35.239C232.336,35.631 233.125,35.827 233.909,35.827C234.712,35.827 235.37,35.654 235.883,35.309C236.396,34.964 236.653,34.418 236.653,33.671C236.653,33.372 236.583,33.106 236.443,32.873C236.303,32.64 236.149,32.444 235.981,32.285C235.813,32.126 235.514,31.954 235.085,31.767C234.656,31.58 234.292,31.436 233.993,31.333C233.694,31.23 233.209,31.067 232.537,30.843C231.809,30.6 231.184,30.348 230.661,30.087C230.138,29.826 229.616,29.48 229.093,29.051C228.57,28.622 228.169,28.08 227.889,27.427C227.609,26.774 227.469,26.018 227.469,25.159C227.469,24.114 227.693,23.176 228.141,22.345C228.589,21.514 229.186,20.861 229.933,20.385C230.68,19.909 231.496,19.55 232.383,19.307C233.27,19.064 234.189,18.943 235.141,18.943C236.298,18.943 237.46,19.153 238.627,19.573C239.794,19.993 240.797,20.595 241.637,21.379Z" style="fill-rule:nonzero;"/>
    </g>
    <g transform="matrix(1,0,0,1,-51.8809,226.711)">
        <path d="M68.261,33.503C68.261,34.53 68.051,35.43 67.631,36.205C67.211,36.98 66.632,37.582 65.895,38.011C65.158,38.44 64.355,38.758 63.487,38.963C62.619,39.168 61.69,39.271 60.701,39.271L52.805,39.271L52.805,19.447L60.701,19.447C61.541,19.447 62.33,19.526 63.067,19.685C63.804,19.844 64.518,20.105 65.209,20.469C65.9,20.833 66.446,21.365 66.847,22.065C67.248,22.765 67.449,23.591 67.449,24.543C67.449,25.607 67.16,26.503 66.581,27.231C66.002,27.959 65.209,28.491 64.201,28.827L64.201,28.883C65.396,29.088 66.371,29.597 67.127,30.409C67.883,31.221 68.261,32.252 68.261,33.503ZM62.829,25.187C62.829,23.899 61.812,23.255 59.777,23.255L57.425,23.255L57.425,27.343L60.001,27.343C60.897,27.343 61.592,27.156 62.087,26.783C62.582,26.41 62.829,25.878 62.829,25.187ZM63.473,33.055C63.473,31.599 62.344,30.871 60.085,30.871L57.425,30.871L57.425,35.407L60.113,35.407C62.353,35.407 63.473,34.623 63.473,33.055Z" style="fill-rule:nonzero;"/>
        <path d="M80.413,25.047L80.217,29.079C79.862,28.986 79.47,28.939 79.041,28.939C77.94,28.939 77.118,29.28 76.577,29.961C76.036,30.642 75.765,31.356 75.765,32.103L75.765,39.271L71.173,39.271L71.173,25.327L75.597,25.327L75.597,27.343L75.653,27.343C76.008,26.615 76.521,26.032 77.193,25.593C77.865,25.154 78.612,24.935 79.433,24.935C79.881,24.935 80.208,24.972 80.413,25.047Z" style="fill-rule:nonzero;"/>
        <path d="M94.301,26.895C95.794,28.239 96.541,30.022 96.541,32.243C96.541,34.464 95.794,36.266 94.301,37.647C92.808,39.028 90.969,39.719 88.785,39.719C86.62,39.719 84.79,39.028 83.297,37.647C81.804,36.266 81.057,34.464 81.057,32.243C81.057,30.022 81.804,28.239 83.297,26.895C84.79,25.551 86.62,24.879 88.785,24.879C90.969,24.879 92.808,25.551 94.301,26.895ZM92.117,32.243C92.117,31.291 91.818,30.46 91.221,29.751C90.624,29.042 89.812,28.687 88.785,28.687C87.758,28.687 86.956,29.037 86.377,29.737C85.798,30.437 85.509,31.272 85.509,32.243C85.509,33.214 85.803,34.058 86.391,34.777C86.979,35.496 87.786,35.855 88.813,35.855C89.84,35.855 90.647,35.496 91.235,34.777C91.823,34.058 92.117,33.214 92.117,32.243Z" style="fill-rule:nonzero;"/>
        <path d="M122.049,25.327L117.205,39.271L112.585,39.271L109.841,30.591L109.785,30.591L107.097,39.271L102.477,39.271L97.661,25.327L102.617,25.327L105.025,34.147L105.109,34.147L107.601,25.327L112.221,25.327L114.797,34.147L114.853,34.147L117.289,25.327L122.049,25.327Z" style="fill-rule:nonzero;"/>
        <path d="M134.565,26.839L132.045,29.443C131.168,28.603 130.197,28.183 129.133,28.183C128.648,28.183 128.237,28.276 127.901,28.463C127.565,28.65 127.397,28.93 127.397,29.303C127.397,29.676 127.574,29.947 127.929,30.115C128.284,30.283 128.956,30.479 129.945,30.703C132.913,31.375 134.397,32.794 134.397,34.959C134.397,36.583 133.814,37.782 132.647,38.557C131.48,39.332 130.076,39.719 128.433,39.719C127.276,39.719 126.151,39.532 125.059,39.159C123.967,38.786 123.066,38.254 122.357,37.563L124.933,34.847C125.885,35.892 127.024,36.415 128.349,36.415C128.797,36.415 129.184,36.317 129.511,36.121C129.838,35.925 130.001,35.622 130.001,35.211C130.001,34.8 129.8,34.492 129.399,34.287C128.998,34.082 128.274,33.858 127.229,33.615C124.522,32.98 123.169,31.627 123.169,29.555C123.169,28.024 123.757,26.862 124.933,26.069C126.109,25.276 127.453,24.879 128.965,24.879C131.298,24.879 133.165,25.532 134.565,26.839Z" style="fill-rule:nonzero;"/>
        <path d="M140.753,30.703L146.661,30.703C146.661,29.938 146.423,29.303 145.947,28.799C145.471,28.295 144.794,28.043 143.917,28.043C143.058,28.043 142.33,28.304 141.733,28.827C141.136,29.35 140.809,29.975 140.753,30.703ZM150.889,32.467C150.889,32.971 150.88,33.335 150.861,33.559L140.753,33.559C140.828,34.306 141.192,34.931 141.845,35.435C142.498,35.939 143.245,36.191 144.085,36.191C145.429,36.191 146.456,35.706 147.165,34.735L150.357,36.751C148.994,38.73 146.885,39.719 144.029,39.719C141.845,39.719 140.02,39.061 138.555,37.745C137.09,36.429 136.357,34.632 136.357,32.355C136.357,30.115 137.071,28.309 138.499,26.937C139.927,25.565 141.724,24.879 143.889,24.879C145.98,24.879 147.669,25.556 148.957,26.909C150.245,28.262 150.889,30.115 150.889,32.467Z" style="fill-rule:nonzero;"/>
        <path d="M162.985,25.047L162.789,29.079C162.434,28.986 162.042,28.939 161.613,28.939C160.512,28.939 159.69,29.28 159.149,29.961C158.608,30.642 158.337,31.356 158.337,32.103L158.337,39.271L153.745,39.271L153.745,25.327L158.169,25.327L158.169,27.343L158.225,27.343C158.58,26.615 159.093,26.032 159.765,25.593C160.437,25.154 161.184,24.935 162.005,24.935C162.453,24.935 162.78,24.972 162.985,25.047Z" style="fill-rule:nonzero;"/>
    </g>
    <g transform="matrix(1,0,0,1,-51.8809,348.171)">
        <path d="M73.469,29.275C73.469,32.392 72.452,34.926 70.417,36.877C68.382,38.828 65.797,39.803 62.661,39.803C59.544,39.803 56.968,38.828 54.933,36.877C52.898,34.926 51.881,32.392 51.881,29.275C51.881,26.139 52.894,23.628 54.919,21.743C56.944,19.858 59.525,18.915 62.661,18.915C65.816,18.915 68.406,19.858 70.431,21.743C72.456,23.628 73.469,26.139 73.469,29.275ZM68.345,29.275C68.345,27.52 67.813,26.074 66.749,24.935C65.685,23.796 64.322,23.227 62.661,23.227C61,23.227 59.642,23.796 58.587,24.935C57.532,26.074 57.005,27.52 57.005,29.275C57.005,31.067 57.532,32.542 58.587,33.699C59.642,34.856 61,35.435 62.661,35.435C64.322,35.435 65.685,34.856 66.749,33.699C67.813,32.542 68.345,31.067 68.345,29.275Z" style="fill-rule:nonzero;"/>
        <path d="M90.157,21.379L87.105,24.599C86.713,24.095 86.186,23.684 85.523,23.367C84.86,23.05 84.212,22.891 83.577,22.891C82.83,22.891 82.182,23.045 81.631,23.353C81.08,23.661 80.805,24.17 80.805,24.879C80.805,25.196 80.87,25.472 81.001,25.705C81.132,25.938 81.351,26.144 81.659,26.321C81.967,26.498 82.27,26.648 82.569,26.769C82.868,26.89 83.297,27.035 83.857,27.203C84.585,27.446 85.154,27.642 85.565,27.791C85.976,27.94 86.503,28.188 87.147,28.533C87.791,28.878 88.29,29.238 88.645,29.611C89,29.984 89.317,30.484 89.597,31.109C89.877,31.734 90.017,32.42 90.017,33.167C90.017,35.314 89.284,36.952 87.819,38.081C86.354,39.21 84.557,39.775 82.429,39.775C80.992,39.775 79.61,39.523 78.285,39.019C76.96,38.515 75.868,37.815 75.009,36.919L78.145,33.727C78.63,34.343 79.27,34.847 80.063,35.239C80.856,35.631 81.645,35.827 82.429,35.827C83.232,35.827 83.89,35.654 84.403,35.309C84.916,34.964 85.173,34.418 85.173,33.671C85.173,33.372 85.103,33.106 84.963,32.873C84.823,32.64 84.669,32.444 84.501,32.285C84.333,32.126 84.034,31.954 83.605,31.767C83.176,31.58 82.812,31.436 82.513,31.333C82.214,31.23 81.729,31.067 81.057,30.843C80.329,30.6 79.704,30.348 79.181,30.087C78.658,29.826 78.136,29.48 77.613,29.051C77.09,28.622 76.689,28.08 76.409,27.427C76.129,26.774 75.989,26.018 75.989,25.159C75.989,24.114 76.213,23.176 76.661,22.345C77.109,21.514 77.706,20.861 78.453,20.385C79.2,19.909 80.016,19.55 80.903,19.307C81.79,19.064 82.709,18.943 83.661,18.943C84.818,18.943 85.98,19.153 87.147,19.573C88.314,19.993 89.317,20.595 90.157,21.379Z" style="fill-rule:nonzero;"/>
    </g>
    <g transform="matrix(1,0,0,1,-51.8809,469.171)">
        <path d="M70.249,36.527C68.364,38.711 65.797,39.803 62.549,39.803C59.469,39.803 56.921,38.828 54.905,36.877C52.889,34.926 51.881,32.411 51.881,29.331C51.881,26.214 52.903,23.698 54.947,21.785C56.991,19.872 59.553,18.915 62.633,18.915C64.07,18.915 65.466,19.172 66.819,19.685C68.172,20.198 69.25,20.912 70.053,21.827L66.805,25.075C66.376,24.478 65.802,24.025 65.083,23.717C64.364,23.409 63.604,23.255 62.801,23.255C61.14,23.255 59.772,23.829 58.699,24.977C57.626,26.125 57.089,27.576 57.089,29.331C57.089,31.123 57.612,32.584 58.657,33.713C59.702,34.842 61.056,35.407 62.717,35.407C64.565,35.407 65.965,34.735 66.917,33.391L70.249,36.527Z" style="fill-rule:nonzero;"/>
        <path d="M87.329,25.551C87.329,27.007 86.951,28.22 86.195,29.191C85.439,30.162 84.496,30.838 83.367,31.221C82.238,31.604 80.936,31.795 79.461,31.795L77.081,31.795L77.081,39.271L72.293,39.271L72.293,19.447L79.573,19.447C81.925,19.447 83.806,19.928 85.215,20.889C86.624,21.85 87.329,23.404 87.329,25.551ZM82.541,25.579C82.541,24.067 81.421,23.311 79.181,23.311L77.081,23.311L77.081,27.987L79.097,27.987C81.393,27.987 82.541,27.184 82.541,25.579Z" style="fill-rule:nonzero;"/>
        <path d="M107.013,31.795C107.013,34.184 106.234,36.116 104.675,37.591C103.116,39.066 101.049,39.803 98.473,39.803C95.897,39.803 93.844,39.07 92.313,37.605C90.782,36.14 90.017,34.203 90.017,31.795L90.017,19.447L94.777,19.447L94.777,31.403C94.777,32.579 95.085,33.554 95.701,34.329C96.317,35.104 97.25,35.491 98.501,35.491C99.77,35.491 100.708,35.104 101.315,34.329C101.922,33.554 102.225,32.579 102.225,31.403L102.225,19.447L107.013,19.447L107.013,31.795Z" style="fill-rule:nonzero;"/>
        <path d="M115.217,34.791L112.501,42.743L108.721,42.743L110.821,34.791L115.217,34.791Z" style="fill-rule:nonzero;"/>
        <path d="M147.417,39.271L142.741,39.271L142.853,25.243L142.769,25.243L137.617,39.271L134.257,39.271L129.245,25.243L129.161,25.243L129.273,39.271L124.765,39.271L124.765,19.447L131.569,19.447L136.077,32.159L136.189,32.159L140.501,19.447L147.417,19.447L147.417,39.271Z" style="fill-rule:nonzero;"/>
        <path d="M154.949,30.703L160.857,30.703C160.857,29.938 160.619,29.303 160.143,28.799C159.667,28.295 158.99,28.043 158.113,28.043C157.254,28.043 156.526,28.304 155.929,28.827C155.332,29.35 155.005,29.975 154.949,30.703ZM165.085,32.467C165.085,32.971 165.076,33.335 165.057,33.559L154.949,33.559C155.024,34.306 155.388,34.931 156.041,35.435C156.694,35.939 157.441,36.191 158.281,36.191C159.625,36.191 160.652,35.706 161.361,34.735L164.553,36.751C163.19,38.73 161.081,39.719 158.225,39.719C156.041,39.719 154.216,39.061 152.751,37.745C151.286,36.429 150.553,34.632 150.553,32.355C150.553,30.115 151.267,28.309 152.695,26.937C154.123,25.565 155.92,24.879 158.085,24.879C160.176,24.879 161.865,25.556 163.153,26.909C164.441,28.262 165.085,30.115 165.085,32.467Z" style="fill-rule:nonzero;"/>
        <path d="M190.341,39.271L185.749,39.271L185.749,31.655C185.749,29.695 185.086,28.715 183.761,28.715C183.014,28.715 182.44,29.009 182.039,29.597C181.638,30.185 181.437,30.899 181.437,31.739L181.437,39.271L176.845,39.271L176.845,31.319C176.845,29.583 176.182,28.715 174.857,28.715C174.148,28.715 173.588,29 173.177,29.569C172.766,30.138 172.561,30.852 172.561,31.711L172.561,39.271L167.941,39.271L167.941,25.327L172.393,25.327L172.393,27.259L172.449,27.259C172.804,26.606 173.345,26.055 174.073,25.607C174.801,25.159 175.65,24.935 176.621,24.935C178.6,24.935 180,25.728 180.821,27.315C181.829,25.728 183.313,24.935 185.273,24.935C186.468,24.935 187.462,25.238 188.255,25.845C189.048,26.452 189.594,27.166 189.893,27.987C190.192,28.808 190.341,29.695 190.341,30.647L190.341,39.271Z" style="fill-rule:nonzero;"/>
        <path d="M206.357,26.895C207.85,28.239 208.597,30.022 208.597,32.243C208.597,34.464 207.85,36.266 206.357,37.647C204.864,39.028 203.025,39.719 200.841,39.719C198.676,39.719 196.846,39.028 195.353,37.647C193.86,36.266 193.113,34.464 193.113,32.243C193.113,30.022 193.86,28.239 195.353,26.895C196.846,25.551 198.676,24.879 200.841,24.879C203.025,24.879 204.864,25.551 206.357,26.895ZM204.173,32.243C204.173,31.291 203.874,30.46 203.277,29.751C202.68,29.042 201.868,28.687 200.841,28.687C199.814,28.687 199.012,29.037 198.433,29.737C197.854,30.437 197.565,31.272 197.565,32.243C197.565,33.214 197.859,34.058 198.447,34.777C199.035,35.496 199.842,35.855 200.869,35.855C201.896,35.855 202.703,35.496 203.291,34.777C203.879,34.058 204.173,33.214 204.173,32.243Z" style="fill-rule:nonzero;"/>
        <path d="M220.749,25.047L220.553,29.079C220.198,28.986 219.806,28.939 219.377,28.939C218.276,28.939 217.454,29.28 216.913,29.961C216.372,30.642 216.101,31.356 216.101,32.103L216.101,39.271L211.509,39.271L211.509,25.327L215.933,25.327L215.933,27.343L215.989,27.343C216.344,26.615 216.857,26.032 217.529,25.593C218.201,25.154 218.948,24.935 219.769,24.935C220.217,24.935 220.544,24.972 220.749,25.047Z" style="fill-rule:nonzero;"/>
        <path d="M236.709,25.327L230.465,41.371C229.868,42.939 229.112,44.101 228.197,44.857C227.282,45.613 225.994,45.991 224.333,45.991C223.474,45.991 222.634,45.888 221.813,45.683L222.317,41.819C222.858,41.987 223.353,42.071 223.801,42.071C224.473,42.071 224.972,41.926 225.299,41.637C225.626,41.348 225.91,40.867 226.153,40.195L226.601,39.047L220.777,25.327L225.873,25.327L228.981,34.287L229.065,34.287L231.837,25.327L236.709,25.327Z" style="fill-rule:nonzero;"/>
    </g>
</svg>
