<?xml version="1.0" encoding="UTF-8" standalone="no"?>
<!DOCTYPE svg PUBLIC "-//W3C//DTD SVG 1.1//EN" "http://www.w3.org/Graphics/SVG/1.1/DTD/svg11.dtd">
<svg width="100%" height="100%" viewBox="0 0 55 887" version="1.1" xmlns="http://www.w3.org/2000/svg" xmlns:xlink="http://www.w3.org/1999/xlink" xml:space="preserve" xmlns:serif="http://www.serif.com/" style="fill-rule:evenodd;clip-rule:evenodd;stroke-linejoin:round;stroke-miterlimit:2;">
    <g transform="matrix(0.706897,0,0,0.706897,-64.3966,-60.1552)">
        <path d="M130,85.098C108.529,85.098 91.098,102.529 91.098,124C91.098,145.471 108.529,162.902 130,162.902C151.471,162.902 168.902,145.471 168.902,124C168.902,102.529 151.471,85.098 130,85.098ZM130,104.902C140.54,104.902 149.098,113.46 149.098,124C149.098,134.54 140.54,143.098 130,143.098C119.46,143.098 110.902,134.54 110.902,124C110.902,113.46 119.46,104.902 130,104.902Z"/>
    </g>
    <g transform="matrix(0.706897,0,0,0.706897,-64.3966,147.845)">
        <path d="M130,85.098C108.529,85.098 91.098,102.529 91.098,124C91.098,145.471 108.529,162.902 130,162.902C151.471,162.902 168.902,145.471 168.902,124C168.902,102.529 151.471,85.098 130,85.098ZM130,104.902C140.54,104.902 149.098,113.46 149.098,124C149.098,134.54 140.54,143.098 130,143.098C119.46,143.098 110.902,134.54 110.902,124C110.902,113.46 119.46,104.902 130,104.902Z"/>
    </g>
    <g transform="matrix(0.706897,0,0,0.706897,-64.3966,355.345)">
        <path d="M130,85.098C108.529,85.098 91.098,102.529 91.098,124C91.098,145.471 108.529,162.902 130,162.902C151.471,162.902 168.902,145.471 168.902,124C168.902,102.529 151.471,85.098 130,85.098ZM130,104.902C140.54,104.902 149.098,113.46 149.098,124C149.098,134.54 140.54,143.098 130,143.098C119.46,143.098 110.902,134.54 110.902,124C110.902,113.46 119.46,104.902 130,104.902Z"/>
    </g>
    <g transform="matrix(0.706897,0,0,0.706897,-64.3966,563.345)">
        <path d="M130,85.098C108.529,85.098 91.098,102.529 91.098,124C91.098,145.471 108.529,162.902 130,162.902C151.471,162.902 168.902,145.471 168.902,124C168.902,102.529 151.471,85.098 130,85.098ZM130,104.902C140.54,104.902 149.098,113.46 149.098,124C149.098,134.54 140.54,143.098 130,143.098C119.46,143.098 110.902,134.54 110.902,124C110.902,113.46 119.46,104.902 130,104.902Z"/>
    </g>
    <g transform="matrix(0.706897,0,0,0.706897,-64.3966,771.345)">
        <path d="M130,85.098C108.529,85.098 91.098,102.529 91.098,124C91.098,145.471 108.529,162.902 130,162.902C151.471,162.902 168.902,145.471 168.902,124C168.902,102.529 151.471,85.098 130,85.098ZM130,104.902C140.54,104.902 149.098,113.46 149.098,124C149.098,134.54 140.54,143.098 130,143.098C119.46,143.098 110.902,134.54 110.902,124C110.902,113.46 119.46,104.902 130,104.902Z"/>
    </g>
    <g transform="matrix(1,0,0,1,-103,-97)">
        <path d="M123.5,145L123.5,312L137.5,312L137.5,145L123.5,145Z"/>
    </g>
    <g transform="matrix(1,0,0,1,-103,-97)">
        <path d="M123.5,353L123.5,519.5L137.5,519.5L137.5,353L123.5,353Z"/>
    </g>
    <g transform="matrix(1,0,0,1,-103,-97)">
        <path d="M123.5,560.5L123.5,727.5L137.5,727.5L137.5,560.5L123.5,560.5Z"/>
    </g>
    <g transform="matrix(1,0,0,1,-103,-97)">
        <path d="M123.5,769L123.5,936L137.5,936L137.5,769L123.5,769Z"/>
    </g>
</svg>
