<?xml version="1.0" encoding="UTF-8" standalone="no"?>
<!DOCTYPE svg PUBLIC "-//W3C//DTD SVG 1.1//EN" "http://www.w3.org/Graphics/SVG/1.1/DTD/svg11.dtd">
<svg width="100%" height="100%" viewBox="0 0 1100 1080" version="1.1" xmlns="http://www.w3.org/2000/svg" xmlns:xlink="http://www.w3.org/1999/xlink" xml:space="preserve" xmlns:serif="http://www.serif.com/" style="fill-rule:evenodd;clip-rule:evenodd;stroke-linejoin:round;stroke-miterlimit:2;">
    <g id="Lines--Fill-" serif:id="Lines (Fill)" transform="matrix(1,0,0,1,0,34)">
        <g transform="matrix(1,0,0,1,0.0410594,-0.0410594)">
            <path d="M591.959,151L591.959,161.661C591.246,168.746 589.076,174.257 585.153,178.125C581.196,182.028 575.589,184.17 568.564,185C554.274,185 161,185 161,185C160.778,185 160.557,185.011 160.336,185.032C149.016,186.11 140.307,189.921 134.09,196.103C127.855,202.302 123.997,211.001 122.986,222.424L136.932,223.658C137.603,216.07 139.819,210.149 143.961,206.03C148.061,201.954 153.918,199.754 161.338,199.001C174.627,199 568.959,199 568.959,199C569.216,199 569.473,198.986 569.729,198.958C580.535,197.761 588.941,194.053 594.984,188.094C601.071,182.09 604.892,173.708 605.928,162.654C605.949,162.436 605.959,162.218 605.959,162L605.959,151L591.959,151Z"/>
        </g>
        <g transform="matrix(1,0,0,1,0.0410594,207.959)">
            <path d="M457.959,145.041L457.959,161.661C457.246,168.746 455.076,174.257 451.153,178.125C447.196,182.028 441.589,184.17 434.564,185C434.56,185 161,185 161,185C160.778,185 160.557,185.011 160.336,185.032C149.016,186.11 140.307,189.921 134.09,196.103C127.855,202.302 123.997,211.001 122.986,222.424L136.932,223.658C137.603,216.07 139.819,210.149 143.961,206.03C148.061,201.954 153.918,199.754 161.338,199.001C161.343,199 434.959,199 434.959,199C435.216,199 435.473,198.986 435.729,198.958C446.535,197.761 454.941,194.053 460.984,188.094C467.071,182.09 470.892,173.708 471.928,162.654C471.949,162.436 471.959,162.218 471.959,162L471.959,145.041L457.959,145.041Z"/>
        </g>
        <g transform="matrix(1,0,0,1,1.04106,-0.0410594)">
            <path d="M226.336,185.032C215.016,186.11 206.307,189.921 200.09,196.103C193.855,202.302 189.997,211.001 188.986,222.424C188.968,222.629 188.959,222.835 188.959,223.041L188.959,311.041L202.959,311.041L202.959,223.36C203.663,215.911 205.875,210.094 209.961,206.03C214.121,201.894 220.09,199.69 227.664,198.968L226.336,185.032Z"/>
        </g>
        <g transform="matrix(1,0,0,1,68.0411,-0.0410594)">
            <path d="M226.336,185.032C215.016,186.11 206.307,189.921 200.09,196.103C193.855,202.302 189.997,211.001 188.986,222.424C188.968,222.629 188.959,222.835 188.959,223.041L188.959,311.041L202.959,311.041L202.959,223.36C203.663,215.911 205.875,210.094 209.961,206.03C214.121,201.894 220.09,199.69 227.664,198.968L226.336,185.032Z"/>
        </g>
        <g transform="matrix(-1,0,0,1,594,-0.0410594)">
            <path d="M227.664,198.968C220.09,199.69 214.121,201.894 209.961,206.03C205.875,210.093 203.663,215.91 202.96,223.353C202.959,223.36 202.959,311.041 202.959,311.041L188.959,311.041L188.959,223.041C188.959,222.835 188.968,222.629 188.986,222.424C189.997,211.001 193.855,202.302 200.09,196.103C206.307,189.921 215.016,186.11 226.336,185.032L227.664,198.968Z"/>
        </g>
        <g transform="matrix(-1,0,0,1,661,-0.0410594)">
            <path d="M227.664,198.968C220.09,199.69 214.121,201.894 209.961,206.03C205.875,210.093 203.663,215.91 202.96,223.353C202.959,223.36 202.959,311.041 202.959,311.041L188.959,311.041L188.959,223.041C188.959,222.835 188.968,222.629 188.986,222.424C189.997,211.001 193.855,202.302 200.09,196.103C206.307,189.921 215.016,186.11 226.336,185.032L227.664,198.968Z"/>
        </g>
        <g transform="matrix(1,0,0,1,-944,207.959)">
            <path d="M1268,145.041L1268,161.661C1267.29,168.746 1265.12,174.257 1261.19,178.125C1257.17,182.097 1251.43,184.245 1244.23,185.042L1245.77,198.958C1256.58,197.761 1264.98,194.053 1271.03,188.094C1277.11,182.09 1280.93,173.708 1281.97,162.654C1281.99,162.436 1282,162.218 1282,162L1282,145.041L1268,145.041Z"/>
        </g>
        <g transform="matrix(1,0,0,1,-944,-0.0410594)">
            <path d="M1268,145.041L1268,161.661C1267.29,168.746 1265.12,174.257 1261.19,178.125C1257.17,182.097 1251.43,184.245 1244.23,185.042L1245.77,198.958C1256.58,197.761 1264.98,194.053 1271.03,188.094C1277.11,182.09 1280.93,173.708 1281.97,162.654C1281.99,162.436 1282,162.218 1282,162L1282,145.041L1268,145.041Z"/>
        </g>
        <g transform="matrix(1,0,0,1,-877,-0.0410594)">
            <path d="M1268,145.041L1268,161.661C1267.29,168.746 1265.12,174.257 1261.19,178.125C1257.17,182.097 1251.43,184.245 1244.23,185.042L1245.77,198.958C1256.58,197.761 1264.98,194.053 1271.03,188.094C1277.11,182.09 1280.93,173.708 1281.97,162.654C1281.99,162.436 1282,162.218 1282,162L1282,145.041L1268,145.041Z"/>
        </g>
        <g transform="matrix(1,0,0,1,-810,-0.0410594)">
            <path d="M1268,145.041L1268,161.661C1267.29,168.746 1265.12,174.257 1261.19,178.125C1257.17,182.097 1251.43,184.245 1244.23,185.042L1245.77,198.958C1256.58,197.761 1264.98,194.053 1271.03,188.094C1277.11,182.09 1280.93,173.708 1281.97,162.654C1281.99,162.436 1282,162.218 1282,162L1282,145.041L1268,145.041Z"/>
        </g>
        <g transform="matrix(1,0,0,1,-743,-0.0410594)">
            <path d="M1268,145.041L1268,161.661C1267.29,168.746 1265.12,174.257 1261.19,178.125C1257.17,182.097 1251.43,184.245 1244.23,185.042L1245.77,198.958C1256.58,197.761 1264.98,194.053 1271.03,188.094C1277.11,182.09 1280.93,173.708 1281.97,162.654C1281.99,162.436 1282,162.218 1282,162L1282,145.041L1268,145.041Z"/>
        </g>
        <g transform="matrix(1,0,0,1,-1078,-0.0410594)">
            <path d="M1268,145.041L1268,161.661C1267.29,168.746 1265.12,174.257 1261.19,178.125C1257.17,182.097 1251.43,184.245 1244.23,185.042L1245.77,198.958C1256.58,197.761 1264.98,194.053 1271.03,188.094C1277.11,182.09 1280.93,173.708 1281.97,162.654C1281.99,162.436 1282,162.218 1282,162L1282,145.041L1268,145.041Z"/>
        </g>
        <g transform="matrix(-1,0,0,1,1539,-0.0410594)">
            <path d="M1282,145.041L1282,162C1282,162.218 1281.99,162.436 1281.97,162.654C1280.93,173.708 1277.11,182.09 1271.03,188.094C1264.98,194.053 1256.58,197.761 1245.77,198.958L1244.23,185.042C1251.43,184.245 1257.17,182.097 1261.19,178.125C1265.12,174.256 1267.29,168.744 1268,161.667C1268,161.661 1268,145.041 1268,145.041L1282,145.041Z"/>
        </g>
        <g transform="matrix(1,0,0,1,-877,207.959)">
            <path d="M1268,145.041L1268,161.661C1267.29,168.746 1265.12,174.257 1261.19,178.125C1257.17,182.097 1251.43,184.245 1244.23,185.042L1245.77,198.958C1256.58,197.761 1264.98,194.053 1271.03,188.094C1277.11,182.09 1280.93,173.708 1281.97,162.654C1281.99,162.436 1282,162.218 1282,162L1282,145.041L1268,145.041Z"/>
        </g>
        <g transform="matrix(1,0,0,1,-1011,207.959)">
            <path d="M1268,145.041L1268,161.661C1267.29,168.746 1265.12,174.257 1261.19,178.125C1257.17,182.097 1251.43,184.245 1244.23,185.042L1245.77,198.958C1256.58,197.761 1264.98,194.053 1271.03,188.094C1277.11,182.09 1280.93,173.708 1281.97,162.654C1281.99,162.436 1282,162.218 1282,162L1282,145.041L1268,145.041Z"/>
        </g>
        <g transform="matrix(1,0,0,1,-1078,207.959)">
            <path d="M1268,145.041L1268,161.661C1267.29,168.746 1265.12,174.257 1261.19,178.125C1257.17,182.097 1251.43,184.245 1244.23,185.042L1245.77,198.958C1256.58,197.761 1264.98,194.053 1271.03,188.094C1277.11,182.09 1280.93,173.708 1281.97,162.654C1281.99,162.436 1282,162.218 1282,162L1282,145.041L1268,145.041Z"/>
        </g>
        <path d="M130,96C114.546,96 102,108.546 102,124C102,139.454 114.546,152 130,152C145.454,152 158,139.454 158,124C158,108.546 145.454,96 130,96ZM130,110C137.727,110 144,116.273 144,124C144,131.727 137.727,138 130,138C122.273,138 116,131.727 116,124C116,116.273 122.273,110 130,110Z"/>
        <g transform="matrix(1,0,0,1,67,0)">
            <path d="M130,96C114.546,96 102,108.546 102,124C102,139.454 114.546,152 130,152C145.454,152 158,139.454 158,124C158,108.546 145.454,96 130,96ZM130,110C137.727,110 144,116.273 144,124C144,131.727 137.727,138 130,138C122.273,138 116,131.727 116,124C116,116.273 122.273,110 130,110Z"/>
        </g>
        <g transform="matrix(1,0,0,1,134,0)">
            <path d="M130,96C114.546,96 102,108.546 102,124C102,139.454 114.546,152 130,152C145.454,152 158,139.454 158,124C158,108.546 145.454,96 130,96ZM130,110C137.727,110 144,116.273 144,124C144,131.727 137.727,138 130,138C122.273,138 116,131.727 116,124C116,116.273 122.273,110 130,110Z"/>
        </g>
        <g transform="matrix(1,0,0,1,201,0)">
            <path d="M130,96C114.546,96 102,108.546 102,124C102,139.454 114.546,152 130,152C145.454,152 158,139.454 158,124C158,108.546 145.454,96 130,96ZM130,110C137.727,110 144,116.273 144,124C144,131.727 137.727,138 130,138C122.273,138 116,131.727 116,124C116,116.273 122.273,110 130,110Z"/>
        </g>
        <g transform="matrix(1,0,0,1,268,0)">
            <path d="M130,96C114.546,96 102,108.546 102,124C102,139.454 114.546,152 130,152C145.454,152 158,139.454 158,124C158,108.546 145.454,96 130,96ZM130,110C137.727,110 144,116.273 144,124C144,131.727 137.727,138 130,138C122.273,138 116,131.727 116,124C116,116.273 122.273,110 130,110Z"/>
        </g>
        <g transform="matrix(1,0,0,1,335,0)">
            <path d="M130,96C114.546,96 102,108.546 102,124C102,139.454 114.546,152 130,152C145.454,152 158,139.454 158,124C158,108.546 145.454,96 130,96ZM130,110C137.727,110 144,116.273 144,124C144,131.727 137.727,138 130,138C122.273,138 116,131.727 116,124C116,116.273 122.273,110 130,110Z"/>
        </g>
        <g transform="matrix(1,0,0,1,67,208)">
            <path d="M130,96C114.546,96 102,108.546 102,124C102,139.454 114.546,152 130,152C145.454,152 158,139.454 158,124C158,108.546 145.454,96 130,96ZM130,110C137.727,110 144,116.273 144,124C144,131.727 137.727,138 130,138C122.273,138 116,131.727 116,124C116,116.273 122.273,110 130,110Z"/>
        </g>
        <g transform="matrix(1,0,0,1,134,208)">
            <path d="M130,96C114.546,96 102,108.546 102,124C102,139.454 114.546,152 130,152C145.454,152 158,139.454 158,124C158,108.546 145.454,96 130,96ZM130,110C137.727,110 144,116.273 144,124C144,131.727 137.727,138 130,138C122.273,138 116,131.727 116,124C116,116.273 122.273,110 130,110Z"/>
        </g>
        <g transform="matrix(1,0,0,1,201,208)">
            <path d="M130,96C114.546,96 102,108.546 102,124C102,139.454 114.546,152 130,152C145.454,152 158,139.454 158,124C158,108.546 145.454,96 130,96ZM130,110C137.727,110 144,116.273 144,124C144,131.727 137.727,138 130,138C122.273,138 116,131.727 116,124C116,116.273 122.273,110 130,110Z"/>
        </g>
        <g transform="matrix(1,0,0,1,268,208)">
            <path d="M130,96C114.546,96 102,108.546 102,124C102,139.454 114.546,152 130,152C145.454,152 158,139.454 158,124C158,108.546 145.454,96 130,96ZM130,110C137.727,110 144,116.273 144,124C144,131.727 137.727,138 130,138C122.273,138 116,131.727 116,124C116,116.273 122.273,110 130,110Z"/>
        </g>
        <g transform="matrix(1,0,0,1,335,208)">
            <path d="M130,96C114.546,96 102,108.546 102,124C102,139.454 114.546,152 130,152C145.454,152 158,139.454 158,124C158,108.546 145.454,96 130,96ZM130,110C137.727,110 144,116.273 144,124C144,131.727 137.727,138 130,138C122.273,138 116,131.727 116,124C116,116.273 122.273,110 130,110Z"/>
        </g>
        <g transform="matrix(1,0,0,1,0,208)">
            <path d="M123,145L123,311L137,311L137,145L123,145Z"/>
        </g>
        <g transform="matrix(1,0,0,1,0,415)">
            <path d="M123,145L123,311L137,311L137,145L123,145Z"/>
        </g>
        <g transform="matrix(1,0,0,1,0,624)">
            <path d="M123,145L123,311L137,311L137,145L123,145Z"/>
        </g>
        <g transform="matrix(1,0,0,1,0,208)">
            <path d="M130,96C114.546,96 102,108.546 102,124C102,139.454 114.546,152 130,152C145.454,152 158,139.454 158,124C158,108.546 145.454,96 130,96ZM130,110C137.727,110 144,116.273 144,124C144,131.727 137.727,138 130,138C122.273,138 116,131.727 116,124C116,116.273 122.273,110 130,110Z"/>
        </g>
        <g transform="matrix(1,0,0,1,0,416)">
            <path d="M130,96C114.546,96 102,108.546 102,124C102,139.454 114.546,152 130,152C145.454,152 158,139.454 158,124C158,108.546 145.454,96 130,96ZM130,110C137.727,110 144,116.273 144,124C144,131.727 137.727,138 130,138C122.273,138 116,131.727 116,124C116,116.273 122.273,110 130,110Z"/>
        </g>
        <g transform="matrix(1,0,0,1,0,624)">
            <path d="M130,96C114.546,96 102,108.546 102,124C102,139.454 114.546,152 130,152C145.454,152 158,139.454 158,124C158,108.546 145.454,96 130,96ZM130,110C137.727,110 144,116.273 144,124C144,131.727 137.727,138 130,138C122.273,138 116,131.727 116,124C116,116.273 122.273,110 130,110Z"/>
        </g>
        <g transform="matrix(1,0,0,1,0,832)">
            <path d="M130,96C114.546,96 102,108.546 102,124C102,139.454 114.546,152 130,152C145.454,152 158,139.454 158,124C158,108.546 145.454,96 130,96ZM130,110C137.727,110 144,116.273 144,124C144,131.727 137.727,138 130,138C122.273,138 116,131.727 116,124C116,116.273 122.273,110 130,110Z"/>
        </g>
        <g transform="matrix(1,0,0,1,402,0)">
            <path d="M130,96C114.546,96 102,108.546 102,124C102,139.454 114.546,152 130,152C145.454,152 158,139.454 158,124C158,108.546 145.454,96 130,96ZM130,110C137.727,110 144,116.273 144,124C144,131.727 137.727,138 130,138C122.273,138 116,131.727 116,124C116,116.273 122.273,110 130,110Z"/>
        </g>
        <g transform="matrix(1,0,0,1,469,0)">
            <path d="M130,96C114.546,96 102,108.546 102,124C102,139.454 114.546,152 130,152C145.454,152 158,139.454 158,124C158,108.546 145.454,96 130,96ZM130,110C137.727,110 144,116.273 144,124C144,131.727 137.727,138 130,138C122.273,138 116,131.727 116,124C116,116.273 122.273,110 130,110Z"/>
        </g>
        <path d="M130,96C114.546,96 102,108.546 102,124C102,139.454 114.546,152 130,152C145.454,152 158,139.454 158,124C158,108.546 145.454,96 130,96ZM130,110C137.727,110 144,116.273 144,124C144,131.727 137.727,138 130,138C122.273,138 116,131.727 116,124C116,116.273 122.273,110 130,110Z"/>
        <g transform="matrix(1,0,0,1,0,-67)">
            <path d="M130,96C114.546,96 102,108.546 102,124C102,139.454 114.546,152 130,152C145.454,152 158,139.454 158,124C158,108.546 145.454,96 130,96ZM130,110C137.727,110 144,116.273 144,124C144,131.727 137.727,138 130,138C122.273,138 116,131.727 116,124C116,116.273 122.273,110 130,110Z"/>
        </g>
        <g transform="matrix(1,0,0,1,67,-67)">
            <path d="M130,96C114.546,96 102,108.546 102,124C102,139.454 114.546,152 130,152C145.454,152 158,139.454 158,124C158,108.546 145.454,96 130,96ZM130,110C137.727,110 144,116.273 144,124C144,131.727 137.727,138 130,138C122.273,138 116,131.727 116,124C116,116.273 122.273,110 130,110Z"/>
        </g>
        <g transform="matrix(1,0,0,1,134,-67)">
            <path d="M130,96C114.546,96 102,108.546 102,124C102,139.454 114.546,152 130,152C145.454,152 158,139.454 158,124C158,108.546 145.454,96 130,96ZM130,110C137.727,110 144,116.273 144,124C144,131.727 137.727,138 130,138C122.273,138 116,131.727 116,124C116,116.273 122.273,110 130,110Z"/>
        </g>
        <g transform="matrix(1,0,0,1,201,-67)">
            <path d="M130,96C114.546,96 102,108.546 102,124C102,139.454 114.546,152 130,152C145.454,152 158,139.454 158,124C158,108.546 145.454,96 130,96ZM130,110C137.727,110 144,116.273 144,124C144,131.727 137.727,138 130,138C122.273,138 116,131.727 116,124C116,116.273 122.273,110 130,110Z"/>
        </g>
        <g transform="matrix(1,0,0,1,268,-67)">
            <path d="M130,96C114.546,96 102,108.546 102,124C102,139.454 114.546,152 130,152C145.454,152 158,139.454 158,124C158,108.546 145.454,96 130,96ZM130,110C137.727,110 144,116.273 144,124C144,131.727 137.727,138 130,138C122.273,138 116,131.727 116,124C116,116.273 122.273,110 130,110Z"/>
        </g>
        <g transform="matrix(1,0,0,1,335,-67)">
            <path d="M130,96C114.546,96 102,108.546 102,124C102,139.454 114.546,152 130,152C145.454,152 158,139.454 158,124C158,108.546 145.454,96 130,96ZM130,110C137.727,110 144,116.273 144,124C144,131.727 137.727,138 130,138C122.273,138 116,131.727 116,124C116,116.273 122.273,110 130,110Z"/>
        </g>
        <g transform="matrix(1,0,0,1,402,-67)">
            <path d="M130,96C114.546,96 102,108.546 102,124C102,139.454 114.546,152 130,152C145.454,152 158,139.454 158,124C158,108.546 145.454,96 130,96ZM130,110C137.727,110 144,116.273 144,124C144,131.727 137.727,138 130,138C122.273,138 116,131.727 116,124C116,116.273 122.273,110 130,110Z"/>
        </g>
        <g transform="matrix(1,0,0,1,469,-67)">
            <path d="M130,96C114.546,96 102,108.546 102,124C102,139.454 114.546,152 130,152C145.454,152 158,139.454 158,124C158,108.546 145.454,96 130,96ZM130,110C137.727,110 144,116.273 144,124C144,131.727 137.727,138 130,138C122.273,138 116,131.727 116,124C116,116.273 122.273,110 130,110Z"/>
        </g>
        <g transform="matrix(1,0,0,1,0,-67)">
            <path d="M130,96C114.546,96 102,108.546 102,124C102,139.454 114.546,152 130,152C145.454,152 158,139.454 158,124C158,108.546 145.454,96 130,96ZM130,110C137.727,110 144,116.273 144,124C144,131.727 137.727,138 130,138C122.273,138 116,131.727 116,124C116,116.273 122.273,110 130,110Z"/>
        </g>
        <path d="M123,145L123,311L137,311L137,145L123,145Z"/>
        <g transform="matrix(0.150602,0,0,0.150602,110.422,56.1627)">
            <path d="M83.52,145L83.52,311L176.48,311L176.48,145L83.52,145Z"/>
        </g>
        <g transform="matrix(0.150602,0,0,0.150602,177.422,56.1627)">
            <path d="M83.52,145L83.52,311L176.48,311L176.48,145L83.52,145Z"/>
        </g>
        <g transform="matrix(0.150602,0,0,0.150602,244.422,56.1627)">
            <path d="M83.52,145L83.52,311L176.48,311L176.48,145L83.52,145Z"/>
        </g>
        <g transform="matrix(0.150602,0,0,0.150602,311.422,56.1627)">
            <path d="M83.52,145L83.52,311L176.48,311L176.48,145L83.52,145Z"/>
        </g>
        <g transform="matrix(0.150602,0,0,0.150602,378.422,56.1627)">
            <path d="M83.52,145L83.52,311L176.48,311L176.48,145L83.52,145Z"/>
        </g>
        <g transform="matrix(0.150602,0,0,0.150602,445.422,56.1627)">
            <path d="M83.52,145L83.52,311L176.48,311L176.48,145L83.52,145Z"/>
        </g>
        <g transform="matrix(0.150602,0,0,0.150602,512.422,56.1627)">
            <path d="M83.52,145L83.52,311L176.48,311L176.48,145L83.52,145Z"/>
        </g>
        <g transform="matrix(0.150602,0,0,0.150602,579.422,56.1627)">
            <path d="M83.52,145L83.52,311L176.48,311L176.48,145L83.52,145Z"/>
        </g>
    </g>
    <g transform="matrix(1,0,0,1,-528,866.179)">
        <text x="723.371px" y="138.957px" style="font-family:'AvenirNextCyr-Bold', 'Avenir Next Cyr', sans-serif;font-weight:750;font-size:48px;">A<tspan x="757.499px 790.619px 818.507px 853.067px 888.059px 912.155px 924.155px 956.987px " y="138.957px 138.957px 138.957px 138.957px 138.957px 138.957px 138.957px 138.957px ">CTUAL CO</tspan>MPUTER</text>
    </g>
    <g transform="matrix(1,0,0,1,-526,658.179)">
        <text x="723.371px" y="138.957px" style="font-family:'AvenirNextCyr-Bold', 'Avenir Next Cyr', sans-serif;font-weight:750;font-size:48px;">OS</text>
    </g>
    <g transform="matrix(1,0,0,1,-525.808,450.427)">
        <text x="723.371px" y="138.957px" style="font-family:'AvenirNextCyr-Bold', 'Avenir Next Cyr', sans-serif;font-weight:750;font-size:48px;">Br<tspan x="773.435px " y="138.957px ">o</tspan>wser</text>
    </g>
    <g transform="matrix(1,0,0,1,-197.808,242.427)">
        <text x="723.371px" y="138.957px" style="font-family:'AvenirNextCyr-Bold', 'Avenir Next Cyr', sans-serif;font-weight:750;font-size:48px;">W<tspan x="770.843px " y="138.957px ">e</tspan>b <tspan x="842.219px " y="138.957px ">A</tspan>PIs</text>
    </g>
    <g transform="matrix(1,0,0,1,-56.232,34.4267)">
        <text x="723.371px" y="138.957px" style="font-family:'AvenirNextCyr-Bold', 'Avenir Next Cyr', sans-serif;font-weight:750;font-size:48px;">JS fr<tspan x="824.843px " y="138.957px ">a</tspan>mework<tspan x="1044.39px " y="138.957px ">s</tspan></text>
    </g>
</svg>
