<?xml version="1.0" encoding="UTF-8" standalone="no"?>
<!DOCTYPE svg PUBLIC "-//W3C//DTD SVG 1.1//EN" "http://www.w3.org/Graphics/SVG/1.1/DTD/svg11.dtd">
<svg width="100%" height="100%" viewBox="0 0 1920 1080" version="1.1" xmlns="http://www.w3.org/2000/svg" xmlns:xlink="http://www.w3.org/1999/xlink" xml:space="preserve" xmlns:serif="http://www.serif.com/" style="fill-rule:evenodd;clip-rule:evenodd;stroke-linejoin:round;stroke-miterlimit:2;">
    <style>
        :root {
            --venn-blue: rgb(193,215,239);
            --venn-green: rgba(17, 219, 73, 0.23);
        }
        @media (prefers-color-scheme: dark) {
            :root {
                --venn-blue: rgb(30, 57, 85);
                --venn-green: rgba(17, 155, 55, 0.23);
            }
        }
    </style>
    <g transform="matrix(62.7143,0,0,62.7143,-8501.36,-7231.2)">
        <circle cx="130" cy="124" r="21" style="fill:var(--venn-blue);"/>
    </g>
    <g transform="matrix(22.0952,0,0,22.0952,-1565.88,-2199.81)">
        <circle cx="130" cy="124" r="21" style="fill:var(--venn-green);"/>
    </g>
    <g id="Lines--Fill-" serif:id="Lines (Fill)" transform="matrix(1,0,0,1,207.5,141)">
        <g transform="matrix(62.7143,0,0,62.7143,-8708.86,-7372.2)">
            <path d="M130,102.888C118.348,102.888 108.888,112.348 108.888,124C108.888,135.652 118.348,145.112 130,145.112C141.652,145.112 151.112,135.652 151.112,124C151.112,112.348 141.652,102.888 130,102.888ZM130,103.112C141.529,103.112 150.888,112.471 150.888,124C150.888,135.529 141.529,144.888 130,144.888C118.471,144.888 109.112,135.529 109.112,124C109.112,112.471 118.471,103.112 130,103.112Z"/>
        </g>
        <g transform="matrix(22.0952,0,0,22.0952,-1773.38,-2340.81)">
            <path d="M130,102.683C118.235,102.683 108.683,112.235 108.683,124C108.683,135.765 118.235,145.317 130,145.317C141.765,145.317 151.317,135.765 151.317,124C151.317,112.235 141.765,102.683 130,102.683ZM130,103.317C141.415,103.317 150.683,112.585 150.683,124C150.683,135.415 141.415,144.683 130,144.683C118.585,144.683 109.317,135.415 109.317,124C109.317,112.585 118.585,103.317 130,103.317Z"/>
        </g>
    </g>
    <g transform="matrix(1,0,0,1,-331.479,391.803)">
        <text x="723.371px" y="138.957px" style="font-family:'AvenirNextCyr-Bold', 'Avenir Next Cyr', sans-serif;font-weight:750;font-size:48px;">P<tspan x="752.027px 770.171px " y="138.957px 138.957px ">ro</tspan>gr<tspan x="850.331px " y="138.957px ">a</tspan>mmers with</text>
        <text x="739.235px" y="192.957px" style="font-family:'AvenirNextCyr-Bold', 'Avenir Next Cyr', sans-serif;font-weight:750;font-size:48px;">drive to innova<tspan x="1089.63px " y="192.957px ">t</tspan>e</text>
    </g>
    <g transform="matrix(1,0,0,1,367.897,391.803)">
        <text x="825.059px" y="138.957px" style="font-family:'AvenirNextCyr-Bold', 'Avenir Next Cyr', sans-serif;font-weight:750;font-size:48px;">L<tspan x="849.443px " y="138.957px ">o</tspan>w-level</text>
        <text x="779.675px" y="192.957px" style="font-family:'AvenirNextCyr-Bold', 'Avenir Next Cyr', sans-serif;font-weight:750;font-size:48px;">pr<tspan x="829.355px " y="192.957px ">o</tspan>gr<tspan x="909.515px " y="192.957px ">a</tspan>mmers</text>
    </g>
</svg>
